<svg width="400" height="400" viewBox="0 0 400 400" fill="none" xmlns="http://www.w3.org/2000/svg">
<rect y="1.30127" width="399.883" height="398.4" rx="23" fill="url(#paint0_linear_529_7)"/>
<path fill-rule="evenodd" clip-rule="evenodd" d="M273.899 72.5156C204.322 32.5055 115.156 56.31 74.9799 125.619C47.3124 173.35 49.9769 230.328 77.0856 274.239C77.9772 275.744 79.4389 276.83 81.1417 277.25C82.8438 277.672 84.6456 277.393 86.1406 276.477C87.6349 275.562 88.6968 274.086 89.0874 272.382C89.478 270.678 89.1652 268.89 88.2183 267.418C63.5477 227.456 61.0653 175.663 86.3001 132.129C122.944 68.9131 203.903 47.2983 267.363 83.7909C330.823 120.283 352.509 200.924 315.865 264.14C290.655 307.63 244.446 331.382 197.413 330.135C195.675 330.078 193.986 330.715 192.718 331.904C191.453 333.093 190.716 334.736 190.668 336.469C190.623 338.2 191.27 339.88 192.472 341.134C193.673 342.389 195.325 343.114 197.064 343.151C248.512 344.515 299.048 318.531 326.77 271.258C326.92 271.063 327.057 270.859 327.184 270.649C367.36 201.34 343.477 112.526 273.899 72.5156ZM247.355 117.969C246.795 117.659 246.127 117.611 245.525 117.833C213.545 129.712 183.514 153.382 160.421 184.682C154.28 184.458 144.005 185.013 132.806 189.965C120.95 195.209 108.278 205.41 99.2003 224.378C98.4009 226.051 99.9218 227.893 101.724 227.432C101.724 227.432 118.972 223.262 134.231 231.423C132.876 234.607 131.552 237.799 130.355 241.025C129.984 242.024 130.391 243.142 131.315 243.674L196.242 281.01C197.169 281.543 198.346 281.333 199.03 280.513C201.231 277.867 203.34 275.128 205.427 272.368C220.072 281.464 225.046 298.349 225.046 298.349C225.548 300.134 227.909 300.525 228.963 298.998C240.977 281.598 243.477 265.499 242.064 252.619C240.731 240.46 236.031 231.332 232.779 226.204C248.445 190.7 254.048 153.021 248.455 119.521C248.346 118.863 247.94 118.292 247.355 117.969ZM228.127 151.199C228.571 151.461 228.909 151.872 229.08 152.358C232.904 163.233 230.475 178.244 223.166 192.563C222.597 193.679 221.202 194.093 220.114 193.467L195.384 179.246C194.296 178.62 193.959 177.211 194.645 176.162C203.422 162.709 215.24 153.103 226.598 150.934C227.123 150.833 227.667 150.928 228.127 151.199ZM176.357 281.646L176.356 281.648C173.799 280.228 170.569 281.14 169.142 283.687L142.031 330.457C141.303 331.672 141.095 333.126 141.451 334.495C141.809 335.863 142.703 337.032 143.933 337.74C145.162 338.446 146.625 338.633 147.994 338.257C149.364 337.881 150.524 336.974 151.217 335.739L178.328 288.967C178.783 288.207 179.039 287.346 179.074 286.461C179.149 284.475 178.098 282.615 176.357 281.646ZM140.452 261.001C137.895 259.582 134.666 260.496 133.239 263.041L115.722 293.26C114.994 294.475 114.786 295.929 115.143 297.297C115.5 298.666 116.394 299.835 117.624 300.543C118.854 301.25 120.316 301.436 121.686 301.059C123.055 300.684 124.215 299.777 124.908 298.542L142.424 268.323C142.88 267.563 143.136 266.7 143.171 265.815C143.246 263.83 142.195 261.969 140.452 261.001ZM158.403 271.326C155.846 269.906 152.618 270.819 151.191 273.365L142.68 288.047C141.952 289.262 141.744 290.716 142.1 292.085C142.458 293.453 143.351 294.623 144.582 295.331C145.81 296.037 147.274 296.223 148.643 295.847C150.013 295.471 151.173 294.564 151.866 293.329L160.376 278.647C160.831 277.885 161.087 277.023 161.119 276.138C161.194 274.153 160.144 272.292 158.402 271.325L158.403 271.326Z" fill="white"/>
<defs>
<linearGradient id="paint0_linear_529_7" x1="273.358" y1="-88.9613" x2="122.093" y2="416.352" gradientUnits="userSpaceOnUse">
<stop stop-color="#626161"/>
<stop offset="1"/>
</linearGradient>
</defs>
</svg>
